<mxfile host="www.draw.io" modified="2023-04-20T09:50:43.598Z" agent="Mozilla/5.0 (Windows NT 10.0; Win64; x64) AppleWebKit/537.36 (KHTML, like Gecko) Chrome/112.0.0.0 Safari/537.36 Edg/112.0.1722.48" etag="TVin_bV3WkloEDzdfqbV" version="21.2.1" type="device">
  <diagram name="Page-1" id="SeX2pQWHV48rdZfBp92Z">
    <mxGraphModel dx="993" dy="588" grid="1" gridSize="10" guides="1" tooltips="1" connect="1" arrows="1" fold="1" page="1" pageScale="1" pageWidth="850" pageHeight="1100" math="0" shadow="0">
      <root>
        <mxCell id="0" />
        <mxCell id="1" parent="0" />
        <mxCell id="42CRQJY5B6QIPdI0lwaA-1" value="Hệ thống tài khoản" style="swimlane;whiteSpace=wrap;html=1;" vertex="1" parent="1">
          <mxGeometry x="160" y="60" width="510" height="110" as="geometry" />
        </mxCell>
        <mxCell id="42CRQJY5B6QIPdI0lwaA-2" value="Đăng ký" style="ellipse;whiteSpace=wrap;html=1;" vertex="1" parent="42CRQJY5B6QIPdI0lwaA-1">
          <mxGeometry x="10" y="50" width="90" height="40" as="geometry" />
        </mxCell>
        <mxCell id="42CRQJY5B6QIPdI0lwaA-5" value="Đăng nhập" style="ellipse;whiteSpace=wrap;html=1;" vertex="1" parent="42CRQJY5B6QIPdI0lwaA-1">
          <mxGeometry x="110" y="50" width="90" height="40" as="geometry" />
        </mxCell>
        <mxCell id="42CRQJY5B6QIPdI0lwaA-6" value="chỉnh sửa thông tin cá nhân" style="ellipse;whiteSpace=wrap;html=1;" vertex="1" parent="42CRQJY5B6QIPdI0lwaA-1">
          <mxGeometry x="210" y="50" width="90" height="40" as="geometry" />
        </mxCell>
        <mxCell id="42CRQJY5B6QIPdI0lwaA-7" value="đăng xuất" style="ellipse;whiteSpace=wrap;html=1;" vertex="1" parent="42CRQJY5B6QIPdI0lwaA-1">
          <mxGeometry x="310" y="50" width="90" height="40" as="geometry" />
        </mxCell>
        <mxCell id="42CRQJY5B6QIPdI0lwaA-8" value="đánh giá" style="ellipse;whiteSpace=wrap;html=1;" vertex="1" parent="42CRQJY5B6QIPdI0lwaA-1">
          <mxGeometry x="410" y="50" width="90" height="40" as="geometry" />
        </mxCell>
        <mxCell id="42CRQJY5B6QIPdI0lwaA-9" value="Tìm kiếm" style="swimlane;whiteSpace=wrap;html=1;startSize=23;" vertex="1" parent="1">
          <mxGeometry x="20" y="210" width="150" height="190" as="geometry" />
        </mxCell>
        <mxCell id="42CRQJY5B6QIPdI0lwaA-10" value="tìm kiếm sản phẩm" style="ellipse;whiteSpace=wrap;html=1;" vertex="1" parent="42CRQJY5B6QIPdI0lwaA-9">
          <mxGeometry x="30" y="40" width="90" height="40" as="geometry" />
        </mxCell>
        <mxCell id="42CRQJY5B6QIPdI0lwaA-11" value="xem chức năng chi tiết" style="ellipse;whiteSpace=wrap;html=1;" vertex="1" parent="42CRQJY5B6QIPdI0lwaA-9">
          <mxGeometry x="30" y="110" width="90" height="40" as="geometry" />
        </mxCell>
        <mxCell id="42CRQJY5B6QIPdI0lwaA-15" value="Quản lý Giỏ hàng" style="swimlane;whiteSpace=wrap;html=1;startSize=23;" vertex="1" parent="1">
          <mxGeometry x="20" y="440" width="150" height="250" as="geometry" />
        </mxCell>
        <mxCell id="42CRQJY5B6QIPdI0lwaA-16" value="chọn sản phẩm" style="ellipse;whiteSpace=wrap;html=1;" vertex="1" parent="42CRQJY5B6QIPdI0lwaA-15">
          <mxGeometry x="30" y="40" width="90" height="40" as="geometry" />
        </mxCell>
        <mxCell id="42CRQJY5B6QIPdI0lwaA-17" value="thêm, sửa xóa sản phẩm" style="ellipse;whiteSpace=wrap;html=1;" vertex="1" parent="42CRQJY5B6QIPdI0lwaA-15">
          <mxGeometry x="30" y="110" width="90" height="40" as="geometry" />
        </mxCell>
        <mxCell id="42CRQJY5B6QIPdI0lwaA-12" value="đặt hàng" style="ellipse;whiteSpace=wrap;html=1;" vertex="1" parent="42CRQJY5B6QIPdI0lwaA-15">
          <mxGeometry x="30" y="180" width="90" height="40" as="geometry" />
        </mxCell>
        <mxCell id="42CRQJY5B6QIPdI0lwaA-20" value="Quản lý thanh toán" style="swimlane;whiteSpace=wrap;html=1;startSize=23;" vertex="1" parent="1">
          <mxGeometry x="220" y="440" width="150" height="190" as="geometry" />
        </mxCell>
        <mxCell id="42CRQJY5B6QIPdI0lwaA-23" value="Quản lý danh mục" style="swimlane;whiteSpace=wrap;html=1;startSize=23;" vertex="1" parent="1">
          <mxGeometry x="420" y="440" width="150" height="170" as="geometry" />
        </mxCell>
        <mxCell id="42CRQJY5B6QIPdI0lwaA-24" value="thêm, sửa xóa danh mục" style="ellipse;whiteSpace=wrap;html=1;" vertex="1" parent="42CRQJY5B6QIPdI0lwaA-23">
          <mxGeometry x="30" y="40" width="90" height="40" as="geometry" />
        </mxCell>
        <mxCell id="42CRQJY5B6QIPdI0lwaA-25" value="xem danh mục" style="ellipse;whiteSpace=wrap;html=1;" vertex="1" parent="42CRQJY5B6QIPdI0lwaA-23">
          <mxGeometry x="30" y="110" width="90" height="40" as="geometry" />
        </mxCell>
        <mxCell id="42CRQJY5B6QIPdI0lwaA-27" value="Quản lý bánh" style="swimlane;whiteSpace=wrap;html=1;startSize=23;" vertex="1" parent="1">
          <mxGeometry x="600" y="440" width="150" height="170" as="geometry" />
        </mxCell>
        <mxCell id="42CRQJY5B6QIPdI0lwaA-28" value="thêm, sửa xóa danh mục" style="ellipse;whiteSpace=wrap;html=1;" vertex="1" parent="42CRQJY5B6QIPdI0lwaA-27">
          <mxGeometry x="30" y="40" width="90" height="40" as="geometry" />
        </mxCell>
        <mxCell id="42CRQJY5B6QIPdI0lwaA-29" value="xem danh mục" style="ellipse;whiteSpace=wrap;html=1;" vertex="1" parent="42CRQJY5B6QIPdI0lwaA-27">
          <mxGeometry x="30" y="110" width="90" height="40" as="geometry" />
        </mxCell>
      </root>
    </mxGraphModel>
  </diagram>
</mxfile>
